<?xml version="1.0" encoding="UTF-8" standalone="no"?>
<svg
   width="300"
   height="300"
   viewBox="0 0 300 300"
   role="img"
   aria-label="PostgreSQL + pgAdmin icon"
   version="1.1"
   id="svg10468"
   sodipodi:docname="icon.svg"
   inkscape:version="1.2.2 (b0a8486541, 2022-12-01)"
   xmlns:inkscape="http://www.inkscape.org/namespaces/inkscape"
   xmlns:sodipodi="http://sodipodi.sourceforge.net/DTD/sodipodi-0.dtd"
   xmlns="http://www.w3.org/2000/svg"
   xmlns:svg="http://www.w3.org/2000/svg">
  <defs
     id="defs10472" />
  <sodipodi:namedview
     id="namedview10470"
     pagecolor="#ffffff"
     bordercolor="#000000"
     borderopacity="0.25"
     inkscape:showpageshadow="2"
     inkscape:pageopacity="0.0"
     inkscape:pagecheckerboard="0"
     inkscape:deskcolor="#d1d1d1"
     showgrid="false"
     inkscape:zoom="1.7116667"
     inkscape:cx="-172.05453"
     inkscape:cy="138.46154"
     inkscape:window-width="3440"
     inkscape:window-height="1368"
     inkscape:window-x="0"
     inkscape:window-y="0"
     inkscape:window-maximized="1"
     inkscape:current-layer="svg10468" />
  <!-- Background -->
  <!-- Red border ≈ 5% (15px) -->
  <!-- Official PostgreSQL elephant -->
  <!-- Text stack: ~80% width => 240px -->
  <g
     id="g10708"
     transform="translate(0.06204548,-0.22322108)">
    <g
       id="g10580"
       style="display:inline">
      <rect
         x="7.5"
         y="7.5"
         width="285"
         height="285"
         rx="24"
         fill="none"
         stroke="#d32f2f"
         stroke-width="15"
         id="rect10448" />
      <g
         id="g10487"
         transform="matrix(0.4077199,0,0,0.39904131,55.142092,17.102551)">
        <svg
           viewBox="0 0 128 128"
           version="1.1"
           id="svg10458"
           width="100%"
           height="100%">
          <g
             id="g10552"
             transform="matrix(1.4483453,0,0,1.3867899,-2.1806414,-1.0614782)">
            <path
               d="m 93.809,92.112 c 0.785,-6.533 0.55,-7.492 5.416,-6.433 l 1.235,0.108 c 3.742,0.17 8.637,-0.602 11.513,-1.938 6.191,-2.873 9.861,-7.668 3.758,-6.409 C 101.807,80.313 100.85,75.598 100.85,75.598 115.553,53.783 121.699,26.09 116.393,19.311 101.923,0.822 76.876,9.565 76.457,9.791 L 76.323,9.816 C 73.572,9.245 70.493,8.904 67.034,8.848 60.733,8.744 55.952,10.5 52.325,13.25 c 0,0 -44.683,-18.409 -42.604,23.151 0.442,8.841 12.672,66.898 27.26,49.362 5.332,-6.412 10.484,-11.834 10.484,-11.834 2.558,1.699 5.622,2.567 8.834,2.255 l 0.249,-0.212 c -0.078,0.796 -0.044,1.575 0.099,2.497 -3.757,4.199 -2.653,4.936 -10.166,6.482 -7.602,1.566 -3.136,4.355 -0.221,5.084 3.535,0.884 11.712,2.136 17.238,-5.598 l -0.22,0.882 c 1.474,1.18 1.375,8.477 1.583,13.69 0.209,5.214 0.558,10.079 1.621,12.948 1.063,2.868 2.317,10.256 12.191,8.14 8.252,-1.764 14.561,-4.309 15.136,-27.985"
               id="path10450" />
            <path
               d="m 75.458,125.256 c -4.367,0 -7.211,-1.689 -8.938,-3.32 -2.607,-2.46 -3.641,-5.629 -4.259,-7.522 l -0.267,-0.79 C 60.75,110.266 60.328,105.431 60.078,99.205 60.04,98.27 60.014,97.307 59.985,96.286 59.964,95.539 59.938,94.602 59.9,93.622 a 18.8,18.8 0 0 1 -4.962,1.568 c -3.079,0.526 -6.389,0.356 -9.84,-0.507 -2.435,-0.609 -4.965,-1.871 -6.407,-3.82 -4.203,3.681 -8.212,3.182 -10.396,2.453 C 24.442,92.031 20.994,88.42 17.753,82.279 15.444,77.904 13.211,72.204 11.115,65.336 7.465,53.376 5.146,40.779 4.94,36.643 4.292,23.698 7.777,14.44 15.296,9.129 27.157,0.751 45.128,5.678 51.68,7.915 56.082,5.262 61.261,3.971 67.113,4.064 c 3.143,0.051 6.136,0.327 8.916,0.823 2.9,-0.912 8.628,-2.221 15.185,-2.139 12.081,0.144 22.092,4.852 28.949,13.615 4.894,6.252 2.474,19.381 0.597,26.651 -2.642,10.226 -7.271,21.102 -12.957,30.57 1.544,0.011 3.781,-0.174 6.961,-0.831 6.274,-1.295 8.109,2.069 8.607,3.575 1.995,6.042 -6.677,10.608 -9.382,11.864 -3.466,1.609 -9.117,2.589 -13.745,2.377 l -0.202,-0.013 -1.216,-0.107 -0.12,1.014 -0.116,0.991 c -0.311,11.999 -2.025,19.598 -5.552,24.619 -3.697,5.264 -8.835,6.739 -13.361,7.709 -1.544,0.33 -2.947,0.474 -4.219,0.474 z m -9.19,-43.671 c 2.819,2.256 3.066,6.501 3.287,14.434 0.028,0.99 0.054,1.927 0.089,2.802 0.106,2.65 0.355,8.855 1.327,11.477 0.137,0.371 0.26,0.747 0.39,1.146 1.083,3.316 1.626,4.979 6.309,3.978 3.931,-0.843 5.952,-1.599 7.534,-3.851 2.299,-3.274 3.585,-9.86 3.821,-19.575 l 4.783,0.116 -4.75,-0.57 0.14,-1.186 c 0.455,-3.91 0.783,-6.734 3.396,-8.602 2.097,-1.498 4.486,-1.353 6.389,-1.01 -2.091,-1.58 -2.669,-3.433 -2.823,-4.193 l -0.399,-1.965 1.121,-1.663 c 6.457,-9.58 11.781,-21.354 14.609,-32.304 2.906,-11.251 2.02,-17.226 1.134,-18.356 C 100.896,7.276 80.557,13.464 78.433,14.166 l -0.359,0.194 -1.8,0.335 -0.922,-0.191 c -2.542,-0.528 -5.366,-0.82 -8.393,-0.869 -4.756,-0.08 -8.593,1.044 -11.739,3.431 l -2.183,1.655 -2.533,-1.043 c -5.412,-2.213 -21.308,-6.662 -29.696,-0.721 -4.656,3.298 -6.777,9.76 -6.305,19.207 0.156,3.119 2.275,14.926 5.771,26.377 4.831,15.825 9.221,21.082 11.054,21.693 0.32,0.108 1.15,-0.537 1.976,-1.529 a 270.708,270.708 0 0 1 10.694,-12.07 l 2.77,-2.915 3.349,2.225 c 1.35,0.897 2.839,1.406 4.368,1.502 l 7.987,-6.812 -1.157,11.808 c -0.026,0.265 -0.039,0.626 0.065,1.296 l 0.348,2.238 -1.51,1.688 -0.174,0.196 4.388,2.025 z"
               id="path10452" />
            <path
               fill="#336791"
               d="M 115.731,77.44 C 101.806,80.313 100.849,75.598 100.849,75.598 115.552,53.782 121.698,26.088 116.394,19.311 101.924,0.823 76.875,9.566 76.457,9.793 L 76.322,9.817 C 73.571,9.246 70.492,8.906 67.031,8.85 60.73,8.747 55.951,10.502 52.324,13.252 c 0,0 -44.684,-18.408 -42.606,23.151 0.442,8.842 12.672,66.899 27.26,49.363 5.332,-6.412 10.483,-11.834 10.483,-11.834 2.559,1.699 5.622,2.567 8.833,2.255 l 0.25,-0.212 c -0.078,0.796 -0.042,1.575 0.1,2.497 -3.758,4.199 -2.654,4.936 -10.167,6.482 -7.602,1.566 -3.136,4.355 -0.22,5.084 3.534,0.884 11.712,2.136 17.237,-5.598 l -0.221,0.882 c 1.473,1.18 2.507,7.672 2.334,13.557 -0.174,5.885 -0.29,9.926 0.871,13.082 1.16,3.156 2.316,10.256 12.192,8.14 8.252,-1.768 12.528,-6.351 13.124,-13.995 0.422,-5.435 1.377,-4.631 1.438,-9.49 l 0.767,-2.3 c 0.884,-7.367 0.14,-9.743 5.225,-8.638 l 1.235,0.108 c 3.742,0.17 8.639,-0.602 11.514,-1.938 6.19,-2.871 9.861,-7.667 3.758,-6.408 z"
               id="path10454" />
            <path
               fill="#ffffff"
               d="m 75.957,122.307 c -8.232,0 -10.84,-6.519 -11.907,-9.185 -1.562,-3.907 -1.899,-19.069 -1.551,-31.503 a 1.59,1.59 0 0 1 1.64,-1.55 1.594,1.594 0 0 1 1.55,1.639 c -0.401,14.341 0.168,27.337 1.324,30.229 1.804,4.509 4.54,8.453 12.275,6.796 7.343,-1.575 10.093,-4.359 11.318,-11.46 0.94,-5.449 2.799,-20.951 3.028,-24.01 a 1.593,1.593 0 0 1 1.71,-1.472 1.597,1.597 0 0 1 1.472,1.71 c -0.239,3.185 -2.089,18.657 -3.065,24.315 -1.446,8.387 -5.185,12.191 -13.794,14.037 -1.463,0.313 -2.792,0.453 -4,0.454 z M 31.321,90.466 a 6.71,6.71 0 0 1 -2.116,-0.35 C 23.858,88.332 18.765,79.624 14.067,64.231 10.491,52.514 8.225,40.284 8.026,36.309 7.437,24.525 10.471,16.188 17.046,11.531 30.053,2.315 51.934,11.091 52.859,11.469 a 1.5960008,1.5960008 0 0 1 -1.207,2.955 C 51.441,14.338 30.459,5.932 18.884,14.139 c -5.622,3.986 -8.203,11.392 -7.672,22.011 0.167,3.349 2.284,15.285 5.906,27.149 4.194,13.742 8.967,22.413 13.096,23.79 0.648,0.216 2.62,0.873 5.439,-2.517 a 245.272,245.272 0 0 1 10.227,-11.526 1.596,1.596 0 0 1 2.304,2.208 c -0.048,0.05 -4.847,5.067 -10.077,11.359 -2.477,2.979 -4.851,3.853 -6.786,3.853 z M 100.75,77.021 A 1.596,1.596 0 0 1 99.428,74.534 C 114.291,52.479 119.508,25.83 115.04,20.12 109.416,12.934 101.475,9.181 91.436,8.964 84.003,8.804 78.095,10.702 77.129,11.033 l -0.243,0.099 C 75.915,11.437 75.17,10.905 74.889,10.283 A 1.6,1.6 0 0 1 75.52,8.258 c 0.046,-0.027 0.192,-0.089 0.429,-0.176 l -0.021,0.006 0.021,-0.007 c 1.641,-0.601 7.639,-2.4 15.068,-2.315 11.108,0.118 20.284,4.401 26.534,12.388 2.957,3.779 2.964,12.485 0.019,23.887 -3.002,11.625 -8.651,24.118 -15.497,34.277 -0.306,0.457 -0.81,0.703 -1.323,0.703 z m 0.76,10.21 c -2.538,0 -4.813,-0.358 -6.175,-1.174 -1.4,-0.839 -1.667,-1.979 -1.702,-2.584 -0.382,-6.71 3.32,-7.878 5.208,-8.411 -0.263,-0.398 -0.637,-0.866 -1.024,-1.349 -1.101,-1.376 -2.609,-3.26 -3.771,-6.078 -0.182,-0.44 -0.752,-1.463 -1.412,-2.648 C 89.055,58.569 81.608,45.214 86.392,38.375 88.606,35.21 93.015,33.964 99.511,34.659 97.6,28.837 88.5,10.625 66.907,10.271 c -6.494,-0.108 -11.82,1.889 -15.822,5.93 -8.96,9.049 -8.636,25.422 -8.631,25.586 a 1.5955529,1.5955529 0 1 1 -3.19,0.084 C 39.244,41.144 38.91,23.962 48.818,13.955 53.455,9.272 59.559,6.96 66.96,7.081 c 13.814,0.227 22.706,7.25 27.732,13.101 5.479,6.377 8.165,13.411 8.386,15.759 0.165,1.746 -1.088,2.095 -1.341,2.147 l -0.576,0.013 c -6.375,-1.021 -10.465,-0.312 -12.156,2.104 -3.639,5.201 3.406,17.834 6.414,23.229 0.768,1.376 1.322,2.371 1.576,2.985 0.988,2.396 2.277,4.006 3.312,5.3 0.911,1.138 1.7,2.125 1.982,3.283 0.131,0.23 1.99,2.98 13.021,0.703 2.765,-0.57 4.423,-0.083 4.93,1.45 0.997,3.015 -4.597,6.532 -7.694,7.97 -2.775,1.29 -7.204,2.106 -11.036,2.106 z M 96.814,83.21 c 0.35,0.353 2.101,0.962 5.727,0.806 3.224,-0.138 6.624,-0.839 8.664,-1.786 2.609,-1.212 4.351,-2.567 5.253,-3.492 l -0.5,0.092 c -7.053,1.456 -12.042,1.262 -14.828,-0.577 a 6.162,6.162 0 0 1 -0.54,-0.401 c -0.302,0.119 -0.581,0.197 -0.78,0.253 -1.58,0.443 -3.214,0.902 -2.996,5.105 z m -45.562,8.915 c -1.752,0 -3.596,-0.239 -5.479,-0.71 -1.951,-0.488 -5.24,-1.957 -5.19,-4.37 0.057,-2.707 3.994,-3.519 5.476,-3.824 5.354,-1.103 5.703,-1.545 7.376,-3.67 0.488,-0.619 1.095,-1.39 1.923,-2.314 1.229,-1.376 2.572,-2.073 3.992,-2.073 0.989,0 1.8,0.335 2.336,0.558 1.708,0.708 3.133,2.42 3.719,4.467 0.529,1.847 0.276,3.625 -0.71,5.006 -3.237,4.533 -7.886,6.93 -13.443,6.93 z M 44.03,87.182 c 0.481,0.372 1.445,0.869 2.518,1.137 1.631,0.408 3.213,0.615 4.705,0.615 4.546,0 8.196,-1.882 10.847,-5.594 0.553,-0.774 0.387,-1.757 0.239,-2.274 -0.31,-1.083 -1.08,-2.068 -1.873,-2.397 -0.43,-0.178 -0.787,-0.314 -1.115,-0.314 -0.176,0 -0.712,0 -1.614,1.009 a 41.146,41.146 0 0 0 -1.794,2.162 c -2.084,2.646 -3.039,3.544 -9.239,4.821 -1.513,0.31 -2.289,0.626 -2.674,0.835 z m 12.269,-7.36 a 1.596,1.596 0 0 1 -1.575,-1.354 8.218,8.218 0 0 1 -0.08,-0.799 c -4.064,-0.076 -7.985,-1.82 -10.962,-4.926 -3.764,-3.927 -5.477,-9.368 -4.699,-14.927 0.845,-6.037 0.529,-11.366 0.359,-14.229 -0.047,-0.796 -0.081,-1.371 -0.079,-1.769 0.003,-0.505 0.013,-1.844 4.489,-4.113 1.592,-0.807 4.784,-2.215 8.271,-2.576 5.777,-0.597 9.585,1.976 10.725,7.246 3.077,14.228 0.244,20.521 -1.825,25.117 -0.385,0.856 -0.749,1.664 -1.04,2.447 l -0.257,0.69 c -1.093,2.931 -2.038,5.463 -1.748,7.354 a 1.595,1.595 0 0 1 -1.335,1.819 z M 42.464,42.26 l 0.062,1.139 c 0.176,2.974 0.504,8.508 -0.384,14.86 -0.641,4.585 0.759,9.06 3.843,12.276 2.437,2.542 5.644,3.945 8.94,3.945 h 0.068 c 0.369,-1.555 0.982,-3.197 1.642,-4.966 l 0.255,-0.686 c 0.329,-0.884 0.714,-1.74 1.122,-2.646 1.991,-4.424 4.47,-9.931 1.615,-23.132 -0.565,-2.615 -1.936,-4.128 -4.189,-4.627 -4.628,-1.022 -11.525,2.459 -12.974,3.837 z m 9.63,-0.677 c -0.08,0.564 1.033,2.07 2.485,2.271 1.449,0.203 2.689,-0.975 2.768,-1.539 0.079,-0.564 -1.033,-1.186 -2.485,-1.388 -1.451,-0.202 -2.691,0.092 -2.768,0.656 z m 2.818,2.826 -0.407,-0.028 c -0.9,-0.125 -1.81,-0.692 -2.433,-1.518 -0.219,-0.29 -0.576,-0.852 -0.505,-1.354 0.101,-0.736 0.999,-1.177 2.4,-1.177 0.313,0 0.639,0.023 0.967,0.069 0.766,0.106 1.477,0.327 2.002,0.62 0.91,0.508 0.977,1.075 0.936,1.368 -0.112,0.813 -1.405,2.02 -2.96,2.02 z m -2.289,-2.732 c 0.045,0.348 0.907,1.496 2.029,1.651 l 0.261,0.018 c 1.036,0 1.81,-0.815 1.901,-1.082 -0.096,-0.182 -0.762,-0.634 -2.025,-0.81 a 5.823,5.823 0 0 0 -0.821,-0.059 c -0.812,0 -1.243,0.183 -1.345,0.282 z m 43.605,-1.245 c 0.079,0.564 -1.033,2.07 -2.484,2.272 -1.45,0.202 -2.691,-0.975 -2.771,-1.539 -0.076,-0.564 1.036,-1.187 2.486,-1.388 1.45,-0.203 2.689,0.092 2.769,0.655 z m -2.819,2.56 c -1.396,0 -2.601,-1.086 -2.7,-1.791 -0.115,-0.846 1.278,-1.489 2.712,-1.688 0.316,-0.044 0.629,-0.066 0.93,-0.066 1.238,0 2.058,0.363 2.14,0.949 0.053,0.379 -0.238,0.964 -0.739,1.492 -0.331,0.347 -1.026,0.948 -1.973,1.079 z m 0.943,-3.013 c -0.276,0 -0.564,0.021 -0.856,0.061 -1.441,0.201 -2.301,0.779 -2.259,1.089 0.048,0.341 0.968,1.332 2.173,1.332 l 0.297,-0.021 c 0.787,-0.109 1.378,-0.623 1.66,-0.919 0.443,-0.465 0.619,-0.903 0.598,-1.052 -0.028,-0.198 -0.56,-0.49 -1.613,-0.49 z m 3.965,32.843 a 1.594,1.594 0 0 1 -1.324,-2.483 c 3.398,-5.075 2.776,-10.25 2.175,-15.255 -0.257,-2.132 -0.521,-4.337 -0.453,-6.453 0.07,-2.177 0.347,-3.973 0.614,-5.71 0.317,-2.058 0.617,-4.002 0.493,-6.31 a 1.5953197,1.5953197 0 1 1 3.186,-0.172 c 0.142,2.638 -0.197,4.838 -0.525,6.967 -0.253,1.643 -0.515,3.342 -0.578,5.327 -0.061,1.874 0.178,3.864 0.431,5.97 0.64,5.322 1.365,11.354 -2.691,17.411 a 1.596,1.596 0 0 1 -1.328,0.708 z"
               id="path10456" />
          </g>
        </svg>
      </g>
      <text
         x="150"
         y="202"
         text-anchor="middle"
         font-family="Inter, 'Segoe UI', Roboto, Helvetica, Arial, sans-serif"
         font-weight="800"
         fill="#000000"
         textLength="240"
         lengthAdjust="spacingAndGlyphs"
         font-size="34px"
         id="text10462"
         transform="translate(-0.91841558)">PostgreSQL</text>
      <text
         x="147.95833"
         y="243.71188"
         text-anchor="middle"
         font-family="Inter, 'Segoe UI', Roboto, Helvetica, Arial, sans-serif"
         font-weight="900"
         fill="#d32f2f"
         font-size="67.6972px"
         id="text10464"
         style="display:inline;stroke-width:2.41776"
         transform="scale(1.0140309,0.98616323)">+</text>
      <text
         x="150"
         y="258"
         text-anchor="middle"
         font-family="Inter, 'Segoe UI', Roboto, Helvetica, Arial, sans-serif"
         font-weight="800"
         fill="#000000"
         textLength="240"
         lengthAdjust="spacingAndGlyphs"
         font-size="34px"
         id="text10466"
         transform="matrix(0.82285274,0,0,1,26.732201,13.067758)">pgAdmin</text>
    </g>
    <path
       style="fill:#ffffff;stroke-width:0.292113"
       d="m 27.540889,284.35649 c -2.472991,-0.59953 -4.911191,-1.94476 -6.970438,-3.84579 -2.28665,-2.11097 -3.775366,-4.38357 -4.679406,-7.14334 l -0.701172,-2.14049 V 150 28.773126 l 0.701172,-2.14048 C 17.652275,21.256108 22.327818,16.890325 27.674703,15.62967 29.271516,15.253183 44.783176,15.198509 150,15.198509 c 132.54057,0 122.1519,-0.146878 125.97671,1.781091 2.53951,1.280088 5.92607,4.744808 7.19444,7.36047 1.92211,3.963833 1.79832,-5.211215 1.71115,126.82838 -0.0736,111.44494 -0.11445,120.17093 -0.56962,121.62666 -0.91481,2.92574 -2.06124,4.8008 -4.31594,7.05893 -1.30144,1.30342 -2.923,2.58076 -3.97719,3.1329 -3.75714,1.96788 6.87782,1.81661 -126.16561,1.79453 -101.792918,-0.0169 -120.903636,-0.0833 -122.313051,-0.42498 z m 33.072548,-10.22252 v -4.54178 l 1.247106,0.85803 c 4.15283,2.85722 11.055211,1.63267 14.059922,-2.49436 2.058652,-2.8276 2.440852,-6.90153 0.951401,-10.14109 -1.003879,-2.18343 -2.043211,-3.25238 -4.189756,-4.30912 -1.614485,-0.7948 -2.32658,-0.96317 -4.516525,-1.06787 -3.024418,-0.1446 -4.726966,0.24183 -6.397679,1.45209 l -1.154469,0.83629 v -1.02423 -1.02423 h -3.359299 -3.359299 v 12.99903 12.99902 h 3.359299 3.359299 z m 37.715524,3.67914 c 2.474919,-0.76442 4.242269,-2.05366 4.948899,-3.6101 0.5113,-1.12619 0.55597,-2.03046 0.56188,-11.37438 l 0.006,-10.15093 h -3.21324 -3.213241 v 1.02724 1.02724 l -1.479178,-1.01749 c -1.757676,-1.20907 -2.823739,-1.44848 -5.644005,-1.26749 -5.936352,0.38098 -10.104722,5.7488 -9.01491,11.60897 0.628388,3.37898 2.073754,5.36704 4.921035,6.76875 3.228102,1.58919 7.377511,1.51241 9.87545,-0.18274 0.591491,-0.4014 1.135327,-0.72981 1.208524,-0.72981 0.07319,0 0.133084,0.67459 0.133084,1.4991 0,1.33719 -0.111336,1.6041 -1.03084,2.4713 -1.173655,1.1069 -2.373199,1.41682 -4.727974,1.22155 -1.385287,-0.11488 -1.770909,-0.28028 -2.465302,-1.05745 l -0.823151,-0.92126 H 85.008987 81.64557 v 0.72012 c 0,1.75023 3.395217,3.97337 6.919539,4.53082 2.589611,0.40961 7.538016,0.12405 9.763852,-0.56344 z m 56.553719,-6.32869 c 0.76876,-0.26 1.75924,-0.72903 2.20106,-1.04228 0.80098,-0.56791 0.80331,-0.56781 0.80331,0.0346 0,0.57573 0.15787,0.60412 3.3593,0.60412 h 3.3593 v -12.4148 -12.4148 h -3.3593 -3.3593 v 4.08077 4.08078 l -1.06247,-0.72101 c -1.55919,-1.05809 -3.14364,-1.38323 -6.0943,-1.25057 -3.1575,0.14196 -5.20257,0.96287 -7.06547,2.83616 -1.87613,1.88657 -2.55323,3.52336 -2.67066,6.45585 -0.15911,3.97373 1.28191,6.93088 4.21507,8.64982 2.63964,1.54694 6.91638,2.03388 9.67346,1.1014 z m -38.06292,-2.88656 1.11827,-2.48296 h 6.06138 6.06138 l 1.10637,2.48296 1.10637,2.48296 h 3.6052 c 1.98286,0 3.60401,-0.0986 3.60256,-0.21909 -0.001,-0.12049 -2.54159,-5.67429 -5.64473,-12.34177 l -5.64208,-12.12269 h -4.03818 -4.03818 l -5.79908,12.11019 c -3.18949,6.66059 -5.79908,12.21439 -5.79908,12.34177 0,0.12737 1.61584,0.23159 3.59076,0.23159 h 3.59077 z m 60.05463,-3.34028 c 0,-3.20279 0.12558,-6.15356 0.27908,-6.55727 0.55732,-1.46588 3.03771,-2.4017 5.12358,-1.93308 2.13582,0.47985 2.19228,0.68382 2.19228,7.91946 v 6.39413 h 3.3593 3.3593 v -6.11196 c 0,-6.10835 2.9e-4,-6.11248 0.73711,-6.98797 1.35753,-1.61334 5.14396,-1.80385 6.34663,-0.31932 0.45206,0.55801 0.51119,1.37061 0.51119,7.02512 v 6.39413 h 3.3593 3.3593 v -6.58925 c 0,-7.57418 -0.2004,-8.78396 -1.6956,-10.23608 -1.33854,-1.29997 -3.31964,-1.8699 -6.49985,-1.8699 -2.79658,0 -4.4919,0.45787 -6.025,1.62722 l -0.96942,0.73941 -0.96943,-0.73941 c -1.50751,-1.14983 -3.23501,-1.62722 -5.88836,-1.62722 -2.58832,0 -3.76853,0.2942 -5.48399,1.36704 l -1.09542,0.68508 v -0.88001 -0.88 h -3.3593 -3.3593 v 9.20156 9.20156 h 3.3593 3.3593 z m 40.89581,-3.37832 v -9.20156 h -3.35929 -3.3593 v 9.20156 9.20156 h 3.3593 3.35929 z m 12.61749,3.09004 c 0.0876,-5.98863 0.10351,-6.1265 0.78964,-6.85618 1.2683,-1.34881 4.46236,-1.87975 6.42293,-1.06765 1.63673,0.67795 1.7863,1.35055 1.7863,8.03253 v 6.00282 h 3.37782 3.37781 l -0.0915,-7.27847 -0.0915,-7.27846 -0.87901,-1.24988 c -1.38406,-1.96801 -3.13029,-2.70842 -6.69935,-2.84053 -3.37027,-0.12476 -4.80123,0.17829 -6.61675,1.4013 l -1.28687,0.86689 -0.0907,-1.01199 -0.0907,-1.01198 h -3.34166 -3.34167 v 9.20156 9.20156 h 3.34291 3.3429 z M 217.7702,248.44206 v -2.19084 h -3.35929 -3.3593 v 2.19084 2.19085 h 3.3593 3.35929 z m -63.68062,-13.29113 v -6.13438 h 6.28043 6.28043 v -4.08958 -4.08958 h -6.28043 -6.28043 v -6.13437 -6.13437 H 150 145.91042 v 6.13437 6.13437 h -6.28043 -6.28043 v 4.08958 4.08958 h 6.28043 6.28043 v 6.13438 6.13437 H 150 h 4.08958 z m -18.0065,-26.46761 c 0.78045,-0.30406 1.91361,-0.97572 2.51812,-1.49256 2.05703,-1.75872 2.05119,-1.72066 2.05119,-13.34494 v -10.39889 h -2.92113 -2.92113 v 1.20244 1.20245 l -1.1519,-1.04067 c -2.93758,-2.65393 -8.06824,-1.93462 -11.22218,1.57332 -3.48318,3.87413 -3.27085,10.6446 0.44561,14.20914 2.74988,2.63746 7.79079,3.08164 10.73866,0.94622 l 1.18981,-0.8619 v 1.54346 c 0,0.95486 -0.18186,1.80309 -0.47688,2.22429 -0.5978,0.85349 -2.57858,1.7712 -3.84117,1.77965 -1.26495,0.008 -2.85952,-0.67728 -3.33121,-1.43259 -0.34474,-0.552 -0.65739,-0.60579 -3.5213,-0.60579 -3.13123,0 -3.14298,0.003 -3.14298,0.70787 0,1.49218 2.24172,3.33531 4.98969,4.10249 2.27327,0.63465 8.6466,0.44581 10.5968,-0.31399 z m 104.69604,-6.12564 c 0.84071,-0.73544 1.52574,-1.42556 1.52227,-1.5336 -0.003,-0.10803 -0.71606,-0.70483 -1.58356,-1.32621 l -1.57726,-1.12979 0.84379,-1.16481 c 1.90857,-2.63471 2.79774,-7.22611 2.03016,-10.48314 -1.19702,-5.07928 -5.34085,-8.9311 -10.68699,-9.93388 -2.46804,-0.46293 -7.75611,-0.15953 -9.79086,0.56176 -3.49505,1.23893 -5.92428,3.41128 -7.49447,6.70198 -2.41628,5.06384 -1.14323,11.60077 2.95865,15.19231 1.39222,1.219 3.97812,2.51119 6.02739,3.01193 3.25528,0.79543 9.14116,0.37972 11.49418,-0.8118 0.80416,-0.40721 0.88741,-0.37695 2.48296,0.90249 0.908,0.72811 1.78461,1.32971 1.94803,1.33688 0.16342,0.007 0.98499,-0.58868 1.82571,-1.32412 z M 73.874027,202.13036 c 2.255004,-0.6965 4.261934,-2.36909 5.375436,-4.47992 0.713384,-1.35233 0.789263,-1.79225 0.787186,-4.56378 -0.0026,-3.5052 -0.502974,-4.92333 -2.425153,-6.87357 -2.978486,-3.02196 -9.928087,-3.94897 -14.486884,-1.93239 -1.757959,0.77762 -3.581354,2.50507 -4.496275,4.25967 -0.680831,1.30567 -0.772361,1.82163 -0.780619,4.40023 -0.0079,2.46565 0.09931,3.1616 0.687569,4.46332 2.118251,4.68738 8.799637,6.74616 15.33874,4.72644 z m 24.980162,0.13853 c 1.628611,-0.48364 3.581011,-2.0237 4.280591,-3.37654 0.60771,-1.17518 0.53525,-3.71316 -0.13751,-4.81645 -0.78331,-1.28457 -2.43855,-1.97832 -7.610953,-3.18993 -4.815187,-1.12793 -5.561585,-1.39634 -5.561585,-1.99995 0,-1.41862 3.848805,-2.17373 5.842259,-1.14621 0.562318,0.28984 1.152155,0.82275 1.310749,1.18424 0.270704,0.61702 0.462908,0.65725 3.14021,0.65725 h 2.85186 l -10e-4,-0.80331 c -0.002,-1.07626 -1.08169,-2.79947 -2.33196,-3.7219 -3.000242,-2.2135 -9.721519,-2.48648 -13.674619,-0.55538 -3.742364,1.82816 -4.411814,6.60619 -1.199319,8.55983 0.499919,0.30402 3.083018,1.09685 5.740218,1.76186 5.421123,1.35671 5.917034,1.55428 5.917034,2.35738 0,1.0737 -1.351522,1.60313 -4.090981,1.60257 -2.696298,-5.9e-4 -3.864721,-0.44186 -4.231767,-1.59833 -0.172899,-0.54464 -0.431161,-0.592 -3.228131,-0.592 h -3.040198 l 0.177073,0.94936 c 0.701381,3.76042 4.844594,5.64593 11.668475,5.31015 1.462227,-0.0719 3.343233,-0.33414 4.180014,-0.58264 z m 18.788511,0.26989 c 0.12368,-0.0764 0.22488,-0.91993 0.22488,-1.87442 v -1.73544 h -1.4678 c -1.3068,0 -1.49904,-0.0822 -1.75268,-0.7493 -0.15668,-0.41211 -0.28488,-3.04113 -0.28488,-5.84226 v -5.09296 h 1.76725 1.76726 l -0.0876,-1.67965 -0.0876,-1.67965 -1.67965,-0.0876 -1.67965,-0.0876 v -2.32232 -2.32233 h -3.06719 -3.06718 v 2.3369 2.33691 h -1.31451 -1.31451 v 1.75267 1.75268 h 1.29409 1.29408 l 0.0935,6.36728 c 0.0806,5.4892 0.16451,6.4756 0.60872,7.1527 0.69118,1.05356 1.632,1.63326 3.17127,1.95403 1.20188,0.25045 5.08874,0.12538 5.58226,-0.17963 z m 58.01704,-0.2639 c 2.58519,-0.76773 5.47897,-3.18139 6.02525,-5.02561 0.19292,-0.65129 0.1677,-0.65725 -2.77711,-0.65725 -2.85863,0 -2.99474,0.0292 -3.57409,0.76568 -1.26675,1.61041 -4.34024,2.07945 -6.3232,0.96496 -1.26365,-0.71021 -1.66333,-1.27158 -1.93451,-2.71708 l -0.19855,-1.05836 h 7.62745 7.62744 v -1.15407 c 0,-1.57963 -0.54855,-4.03711 -1.17982,-5.28554 -1.78738,-3.53482 -7.15349,-5.61739 -12.09223,-4.69295 -3.41857,0.63989 -5.75842,2.37325 -7.14134,5.29031 -0.66425,1.40113 -0.76114,1.98022 -0.75754,4.52775 0.005,3.19859 0.45666,4.65311 2.02212,6.50524 2.42113,2.86447 7.88852,3.95868 12.67613,2.53692 z m 26.74636,0.10682 c 3.20396,-0.68712 5.50369,-2.21739 6.6839,-4.44752 0.47999,-0.90699 0.63022,-1.69036 0.62154,-3.2409 -0.0252,-4.49423 -1.98928,-5.87374 -10.35398,-7.27222 -5.6128,-0.93839 -6.60604,-1.21553 -7.47666,-2.08615 -1.20811,-1.20811 -0.68345,-2.7261 1.26887,-3.67121 1.09469,-0.52992 1.67106,-0.60507 3.84414,-0.50117 3.11628,0.14899 4.30344,0.72497 5.14825,2.4978 l 0.58423,1.226 3.03386,0.0106 3.03386,0.0106 -0.18694,-1.36388 c -0.3933,-2.86945 -2.51084,-5.07363 -5.88078,-6.1214 -2.012,-0.62556 -7.83476,-0.86513 -10.14213,-0.41728 -4.9507,0.9609 -7.50951,3.48433 -7.52429,7.42025 -0.0159,4.22494 2.06405,5.67067 10.13702,7.04617 5.41454,0.92254 6.27643,1.1669 7.37427,2.09067 1.00341,0.84431 1.18786,2.17608 0.44773,3.23276 -1.23495,1.76314 -6.89039,2.32137 -9.65278,0.95279 -1.10729,-0.54859 -1.58547,-1.00702 -2.03223,-1.94828 l -0.58422,-1.2309 -3.17844,-0.0106 -3.17843,-0.0106 0.17563,1.08227 c 0.79299,4.88663 6.02682,7.62962 13.75648,7.20963 1.43513,-0.078 3.27162,-0.28381 4.0811,-0.45742 z M 38.704966,197.79304 v -4.34912 l 5.185005,-0.11758 c 4.963641,-0.11256 5.263738,-0.15342 7.029196,-0.9571 3.312514,-1.50793 4.960159,-4.40189 4.656928,-8.17952 -0.307466,-3.83037 -2.517073,-6.06194 -6.783119,-6.85057 -0.959901,-0.17745 -5.066515,-0.3187 -9.26532,-0.3187 h -7.541288 v 12.56085 12.56086 h 3.359299 3.359299 z M 152.3369,196.57751 c 0,-6.20197 0.16381,-6.89777 1.83066,-7.77607 0.62421,-0.32891 1.66243,-0.50391 3.06211,-0.51614 l 2.11769,-0.0185 1.3e-4,-2.59685 1.2e-4,-2.59686 -1.62039,0.16724 c -1.79615,0.18538 -3.82767,1.21994 -4.78473,2.43664 l -0.60559,0.7699 v -1.49996 -1.49996 h -3.06718 -3.06719 v 9.34762 9.34761 h 3.06719 3.06718 z m 115.61599,3.30078 -0.0853,-2.26388 -7.2298,-0.0781 -7.2298,-0.0781 V 187.2393 177.02045 h -3.35929 -3.3593 v 12.56085 12.56086 h 10.67441 10.67441 z M 160.81584,178.46691 c 5.38303,-0.66592 11.28573,-2.50605 14.71861,-4.58842 2.21114,-1.34128 5.48558,-4.42915 6.88701,-6.49463 4.18616,-6.16967 6.24134,-14.09376 7.0088,-27.02359 0.44149,-7.43812 0.11233,-6.73902 3.11426,-6.61416 6.66255,0.27714 14.98061,-1.39779 20.37513,-4.10273 7.53261,-3.77705 11.33546,-7.86003 11.33546,-12.17048 0,-3.96154 -2.50802,-6.64101 -6.86805,-7.33753 -1.93734,-0.30949 -2.27995,-0.28182 -8.81841,0.71215 -1.60662,0.24424 -3.59599,0.44484 -4.42082,0.44579 l -1.49969,0.002 2.32412,-3.87049 C 216.99535,87.401807 224.5853,63.007396 223.30707,48.495774 222.71954,41.825683 221.40675,38.976625 216.78451,34.340313 206.4509,23.97524 192.95614,19.101075 176.15462,19.665234 c -5.74026,0.192746 -9.46021,0.654849 -14.66041,1.821158 -3.22331,0.72293 -3.49034,0.739445 -6.0457,0.373905 -4.18297,-0.598367 -16.05695,-0.520008 -19.23105,0.126911 -3.26855,0.666171 -6.50841,1.72936 -9.44044,3.097967 l -2.3369,1.090816 -2.19085,-0.670838 c -9.0427,-2.768872 -20.60147,-4.230882 -28.594569,-3.616779 -8.903176,0.684022 -15.404375,2.84543 -20.943593,6.962968 -6.360295,4.72788 -10.255475,11.302419 -12.137121,20.485817 -0.758629,3.702508 -1.060463,12.838098 -0.557383,16.870247 1.161339,9.30801 5.232377,25.861992 9.214203,37.467524 6.577995,19.1724 13.931956,30.28401 22.011736,33.25907 2.401858,0.88439 6.291158,1.18074 8.548724,0.65139 1.670743,-0.39175 4.415583,-1.63803 5.837323,-2.6504 l 0.85962,-0.6121 1.00427,0.88176 c 3.0476,2.67582 7.32716,4.14514 13.73439,4.71547 4.71111,0.41935 8.87699,-0.14731 14.19345,-1.93064 0.41007,-0.13756 0.48589,0.53594 0.65087,5.78136 0.31494,10.01303 0.97899,14.89917 2.70923,19.93484 2.55551,7.4375 5.3431,11.00891 10.36064,13.27387 3.53311,1.59487 7.11595,2.05133 11.67478,1.48736 z"
       id="path10651" />
    <path
       style="fill:#ffffff;stroke-width:0.292113"
       d="m 155.2436,174.39072 c -4.89451,-0.7722 -8.97504,-3.603 -11.58893,-8.03965 -2.9166,-4.95047 -3.68295,-10.15813 -4.07192,-27.67045 -0.10617,-4.77969 -0.23642,-8.69036 -0.28945,-8.69036 -0.053,0 -0.72195,0.48117 -1.48649,1.06926 -4.24259,3.26344 -10.84585,4.90829 -16.8341,4.19331 -7.83377,-0.93534 -12.27151,-3.62176 -11.44206,-6.92655 0.49562,-1.9747 3.08464,-3.27607 8.90691,-4.47706 5.38031,-1.10982 6.566,-1.77617 9.45984,-5.31634 0.61621,-0.75384 1.03567,-1.50768 0.93213,-1.67521 -0.10354,-0.16753 -0.79649,-0.3046 -1.53989,-0.3046 -1.69766,0 -4.69876,-0.73822 -6.79305,-1.67096 l -1.60662,-0.71556 -2.87181,3.01897 c -1.57949,1.66043 -4.9895,5.30421 -7.5778,8.09729 -6.30099,6.79953 -8.42871,8.12638 -12.601898,7.85856 -2.944739,-0.18899 -4.912125,-1.19012 -7.844755,-3.99194 -4.703588,-4.49378 -8.82737,-11.93415 -13.308149,-24.01135 C 71.080782,95.422002 66.895341,79.620038 64.981416,68.500487 64.148814,63.663225 64.073789,55.99304 64.815695,51.557936 67.207815,37.257865 75.315341,29.02042 89.575993,26.400865 c 3.754752,-0.689714 12.555567,-0.690159 17.337347,-8.76e-4 4.7241,0.680968 10.67063,2.001537 14.77034,3.280103 l 3.37793,1.053468 3.34067,-1.636326 c 7.30381,-3.577558 16.05264,-4.529104 26.00246,-2.828097 l 3.35301,0.573224 3.20486,-0.862136 c 9.17223,-2.467408 20.08545,-2.889953 28.91081,-1.119387 9.76051,1.95818 19.2099,7.259662 24.90842,13.974612 2.65819,3.132329 3.51078,5.620224 3.77393,11.012562 0.74719,15.310811 -8.00258,40.304182 -21.14355,60.395648 -2.73086,4.17526 -2.72652,3.94485 -0.0899,4.77691 2.25605,0.71196 8.60031,0.6174 13.24714,-0.19744 4.41365,-0.77396 6.1846,-0.77909 7.42713,-0.0215 2.14011,1.30482 1.86595,3.50436 -0.7643,6.13188 -1.82422,1.82232 -6.08351,4.44727 -9.24785,5.69933 -4.93527,1.95279 -14.18389,2.9765 -18.98734,2.10167 -1.2853,-0.23408 -2.37086,-0.39674 -2.41235,-0.36147 -0.0415,0.0353 -0.47062,3.14119 -0.9536,6.90203 -1.28742,10.02491 -2.58065,18.75922 -3.20105,21.61949 -1.84026,8.48439 -5.86675,13.13628 -13.59489,15.70648 -4.87396,1.62097 -10.2086,2.32342 -13.59159,1.78969 z m 9.94627,-4.66356 c 2.92406,-0.76016 6.69274,-2.50744 8.29525,-3.84594 2.65177,-2.2149 4.34551,-6.10637 5.41183,-12.43403 1.40134,-8.31563 3.8197,-27.31658 3.8197,-30.01115 0,-4.90176 2.00772,-8.0923 5.90732,-9.38754 0.76753,-0.25494 1.3955,-0.5078 1.3955,-0.56192 0,-0.0541 -0.73844,-0.99658 -1.64099,-2.09435 -2.16712,-2.63586 -3.61825,-4.79077 -4.78649,-7.10791 -0.52651,-1.0443 -2.07744,-3.80477 -3.4465,-6.134369 -4.85506,-8.26136 -8.28072,-16.188368 -9.13023,-21.127449 -0.18864,-1.096729 -0.28965,-3.213315 -0.22447,-4.703526 0.10179,-2.32751 0.25221,-2.981083 1.06699,-4.636143 2.29099,-4.653654 6.78882,-6.631226 15.08219,-6.631226 2.17572,0 3.95584,-0.118376 3.95584,-0.263054 0,-0.654935 -4.11234,-8.299077 -5.59986,-10.409189 -9.11193,-12.925655 -21.92217,-20.052224 -37.77891,-21.017099 -5.60639,-0.341147 -11.49533,0.575283 -15.99151,2.488582 -9.30397,3.959193 -15.97137,13.488659 -18.59122,26.571743 -0.51891,2.591337 -1.20397,7.594937 -1.03985,7.594937 0.0275,0 1.15337,-0.517066 2.50196,-1.149035 5.13772,-2.407616 11.3051,-3.613373 15.21476,-2.974575 4.36167,0.712654 7.42114,2.856529 9.05302,6.343779 1.58704,3.391429 2.86529,11.199196 2.86335,17.489793 -0.002,6.589755 -0.92138,10.493918 -4.0946,17.388381 -1.62405,3.52857 -3.5391,8.37945 -3.93871,9.97686 -0.19076,0.76253 -0.17068,0.77462 1.21822,0.73413 3.33314,-0.0972 6.24373,1.64277 7.94229,4.74788 l 1.02601,1.87562 0.0569,13.02214 c 0.0728,16.6668 0.61968,24.14743 2.04529,27.97731 1.61794,4.34658 4.48888,7.45481 7.93476,8.5906 2.31803,0.76403 7.91624,0.61117 11.47218,-0.31325 z m -35.80879,-38.85418 c 2.64967,-0.67767 4.50446,-1.6306 6.78045,-3.4836 2.29907,-1.87179 3.46522,-3.57188 3.42784,-4.99733 -0.0654,-2.49408 -2.06111,-4.67053 -4.28267,-4.67053 -1.26342,0 -1.23822,-0.0214 -6.06046,5.14453 -1.05707,1.1324 -2.49429,2.32854 -3.21325,2.67425 -1.34913,0.64874 -4.67172,1.61344 -9.16747,2.66176 -1.43477,0.33456 -2.72446,0.72406 -2.86596,0.86557 -0.37324,0.37323 2.19415,1.49942 4.43851,1.94695 3.04462,0.60711 8.2805,0.53936 10.94301,-0.1416 z m -30.267559,-2.22262 c 1.082909,-0.53964 2.414629,-1.72534 4.658129,-4.14741 1.72793,-1.86546 5.0651,-5.42715 7.41592,-7.91487 l 4.27424,-4.52313 -1.80247,-1.77605 c -5.37918,-5.30032 -7.41445,-11.512168 -6.36995,-19.441772 0.38308,-2.908359 0.46798,-5.791408 0.41718,-14.167479 -0.0371,-6.125471 0.0687,-11.674694 0.25345,-13.291139 1.31281,-11.484412 5.34966,-21.173038 11.56881,-27.765662 l 1.86426,-1.976211 -1.39762,-0.458487 c -2.12036,-0.695581 -7.12202,-1.848538 -11.03734,-2.544268 -4.38864,-0.779837 -14.103201,-1.09582 -17.667409,-0.574663 -11.055116,1.616471 -17.923374,6.92566 -20.996904,16.230684 -2.062693,6.244747 -2.458729,14.550902 -1.072445,22.492697 2.10696,12.07044 6.443536,27.849064 10.521196,38.28136 1.832352,4.68789 5.290122,11.72345 7.169031,14.5869 2.052555,3.12809 5.031555,6.19172 6.856658,7.05146 1.908094,0.89882 3.453161,0.88091 5.345264,-0.062 z m 101.776199,-4.08034 c 4.68657,-0.86387 8.08186,-2.24759 11.54942,-4.70685 1.67411,-1.18731 2.43968,-2.14765 1.39141,-1.74539 -1.44083,0.5529 -7.52169,1.19413 -11.39628,1.20175 -3.74199,0.007 -4.68021,-0.0865 -6.42648,-0.64286 -1.12464,-0.35831 -2.41757,-0.90071 -2.87318,-1.20535 -0.74368,-0.49723 -0.95717,-0.51511 -2.08788,-0.17482 -3.00353,0.90393 -3.80415,1.88044 -4.13471,5.04307 -0.16545,1.583 -0.12414,1.77806 0.4406,2.0803 1.76517,0.94469 8.80315,1.02275 13.5371,0.15015 z M 130.04458,110.4187 c 0.41321,-1.20497 1.47161,-3.83399 2.35199,-5.84226 4.39327,-10.021651 4.75007,-11.272952 4.95609,-17.380724 0.19152,-5.678042 -0.81752,-13.465849 -2.22405,-17.165308 -0.55249,-1.453157 -2.59414,-3.361358 -4.14898,-3.877794 -4.09333,-1.359587 -11.98504,0.253061 -17.71602,3.620209 l -1.36343,0.801061 -0.037,8.749087 c -0.0214,5.056624 -0.17744,9.550425 -0.36972,10.647818 -0.46215,2.637543 -0.41809,6.807762 0.0949,8.983516 0.54104,2.294715 2.06513,5.346425 3.59435,7.196975 3.24318,3.92471 8.60763,6.67459 12.70642,6.51346 l 1.40419,-0.0552 z m 65.27088,-4.30867 c 6.39235,-10.282952 11.04555,-20.095409 14.53701,-30.654933 4.57588,-13.839216 5.91912,-26.331022 3.41941,-31.799693 -0.40697,-0.890335 -1.58989,-2.409911 -2.98108,-3.829466 -5.61024,-5.724656 -12.68682,-9.485723 -21.03229,-11.178248 -5.88508,-1.19354 -14.22962,-1.324718 -20.70934,-0.325555 -4.12495,0.636061 -4.11731,0.455437 -0.10369,2.454368 10.24265,5.101203 18.57219,13.318095 23.87947,23.556506 3.50786,6.7671 3.79482,8.767896 2.49278,17.38072 -0.90541,5.989218 -0.9755,10.302284 -0.24922,15.33593 0.33377,2.313228 0.52338,5.31076 0.51737,8.179163 -0.008,4.068067 -0.09,4.794658 -0.80217,7.156768 -0.43598,1.44596 -1.25071,3.46519 -1.8105,4.48719 -0.96106,1.75456 -0.99232,1.89709 -0.56059,2.55599 0.25147,0.3838 0.5582,0.69781 0.6816,0.69781 0.12341,0 1.34797,-1.80745 2.72124,-4.01655 z m -5.27117,-3.86634 c 1.26594,-4.08312 1.34166,-7.216981 0.35655,-14.755861 -0.65579,-5.01867 -0.60847,-10.296541 0.13488,-15.043817 0.33962,-2.168939 0.69918,-4.688889 0.79902,-5.599893 l 0.18152,-1.656368 -1.66349,-0.207839 c -2.97981,-0.372301 -8.2463,0.01507 -10.20331,0.750512 -2.22456,0.835977 -3.98402,2.580744 -4.51503,4.477335 -0.65805,2.350317 -0.26706,6.507108 0.96594,10.269359 1.25902,3.841627 4.4314,10.39679 7.84848,16.217474 1.36929,2.332464 2.98181,5.218218 3.58339,6.412798 1.02178,2.02898 1.12105,2.13467 1.50793,1.60557 0.22778,-0.31151 0.67964,-1.42268 1.00412,-2.46927 z"
       id="path10653" />
    <path
       style="fill:#ffffff;stroke-width:0.292113"
       d="m 155.2436,174.37364 c -3.4452,-0.50724 -7.40044,-2.60674 -9.49881,-5.04209 -1.36614,-1.58554 -3.09693,-4.57584 -3.88637,-6.71452 -1.32772,-3.59694 -1.97517,-10.40705 -2.27567,-23.93641 -0.10617,-4.77969 -0.23642,-8.69036 -0.28945,-8.69036 -0.053,0 -0.72195,0.48117 -1.48649,1.06926 -4.24259,3.26344 -10.84585,4.90829 -16.8341,4.19331 -7.83377,-0.93534 -12.27151,-3.62176 -11.44206,-6.92655 0.49562,-1.9747 3.08464,-3.27607 8.90691,-4.47706 5.38493,-1.11078 6.55801,-1.78192 9.60116,-5.49304 1.18765,-1.44834 1.00648,-1.79103 -0.95092,-1.79864 -1.52242,-0.006 -4.59712,-0.78737 -6.59121,-1.67518 l -1.60662,-0.71531 -2.58328,2.7266 c -1.42081,1.49963 -4.83853,5.14935 -7.59494,8.11049 -6.7384,7.23888 -8.67119,8.44449 -13.037111,8.13211 -2.793774,-0.19989 -4.817612,-1.25122 -7.688297,-3.99386 C 80.822586,122.29818 73.986808,106.56221 68.22404,83.649558 66.898163,78.377898 65.571724,72.089384 64.812985,67.478092 64.14436,63.414473 64.146522,55.582183 64.817379,51.557936 67.201367,37.257194 75.30599,29.022138 89.575993,26.400865 c 3.764342,-0.691476 12.560777,-0.690455 17.337347,0.002 4.95911,0.71893 9.7886,1.775681 14.31112,3.131449 l 3.8991,1.168876 3.30969,-1.621147 c 7.26097,-3.556559 16.24583,-4.52504 26.06947,-2.810038 l 3.18821,0.556595 3.23827,-0.853637 c 9.36379,-2.468377 20.12863,-2.882743 28.94422,-1.114137 9.68047,1.942122 19.01693,7.137533 24.70678,13.748464 2.92516,3.398688 3.70815,5.63361 3.97427,11.343974 0.71144,15.265854 -7.9026,39.931956 -20.96312,60.027416 -1.35165,2.07972 -2.30494,3.83733 -2.21227,4.07884 0.57671,1.50288 8.67449,1.91079 15.19036,0.7652 4.4113,-0.77558 6.18392,-0.7811 7.42713,-0.0231 2.14011,1.30482 1.86595,3.50436 -0.7643,6.13187 -1.82422,1.82233 -6.08351,4.44728 -9.24785,5.69934 -4.93527,1.95279 -14.18389,2.9765 -18.98734,2.10167 -1.2853,-0.23409 -2.37086,-0.39675 -2.41235,-0.36147 -0.0415,0.0353 -0.47062,3.14119 -0.9536,6.90203 -1.28562,10.01085 -2.58039,18.75801 -3.19831,21.60695 -2.01694,9.29925 -6.58315,13.96236 -16.13737,16.47985 -2.74137,0.72234 -6.92266,1.35151 -8.54679,1.28607 -0.4862,-0.0196 -1.61348,-0.14302 -2.50506,-0.27429 z m 7.7997,-4.21716 c 9.77954,-1.87114 13.74368,-5.70868 15.5408,-15.0445 1.23276,-6.40403 4.13255,-28.63089 4.13255,-31.67594 0,-4.90176 2.00772,-8.0923 5.90732,-9.38754 0.76753,-0.25494 1.3955,-0.5006 1.3955,-0.54593 0,-0.0453 -0.96175,-1.28025 -2.13723,-2.74428 -1.17548,-1.46403 -2.56482,-3.421 -3.08743,-4.34883 -0.52261,-0.92783 -2.3342,-4.11881 -4.02577,-7.091057 -5.49674,-9.658326 -7.96258,-15.042041 -9.33862,-20.389206 -0.61161,-2.376643 -0.71303,-3.352119 -0.62869,-6.047016 0.0853,-2.725469 0.2173,-3.464895 0.86959,-4.871027 2.26259,-4.87739 6.83067,-6.959547 15.26865,-6.959547 2.17572,0 3.95584,-0.08338 3.95584,-0.185288 0,-0.101906 -0.57081,-1.383552 -1.26848,-2.848101 -7.20442,-15.123589 -20.2528,-25.318115 -35.71547,-27.904035 -8.76756,-1.466253 -15.8895,-0.923525 -22.23878,1.69471 -7.94866,3.277762 -14.31361,11.085615 -17.41462,21.362426 -0.97767,3.240027 -1.94818,8.075069 -2.15361,10.729227 l -0.16399,2.11866 2.45377,-1.149873 c 5.13951,-2.40846 11.30633,-3.614308 15.21655,-2.975416 4.36167,0.712654 7.42114,2.856529 9.05302,6.343779 1.58704,3.391429 2.86529,11.199196 2.86335,17.489793 -0.002,6.586589 -0.92892,10.532944 -4.08406,17.388381 -1.63419,3.55076 -3.5566,8.40727 -3.94925,9.97686 -0.19076,0.76253 -0.17068,0.77462 1.21822,0.73413 3.33299,-0.0972 6.24374,1.64279 7.94211,4.74754 l 1.02581,1.87528 0.0555,12.87643 c 0.0817,18.94377 0.66617,25.22528 2.75464,29.60649 1.81184,3.80088 4.34655,6.17415 7.74507,7.25178 1.61367,0.51167 6.06119,0.49759 8.80766,-0.0279 z m -32.35756,-39.65786 c 3.63573,-1.29593 7.70852,-4.48533 8.67185,-6.79092 1.21001,-2.89595 -1.95239,-6.62752 -4.97394,-5.86916 -0.41193,0.10339 -1.80424,1.4041 -3.23942,3.0263 -1.38434,1.56475 -3.06473,3.27127 -3.73421,3.79228 -1.26251,0.98252 -5.09088,2.37223 -8.22794,2.98677 -2.75932,0.54054 -5.11197,1.23207 -5.11197,1.50259 0,0.43643 2.1784,1.37687 4.26039,1.83926 1.4222,0.31586 3.23036,0.42389 6.10962,0.36501 3.54471,-0.0725 4.37684,-0.18602 6.24562,-0.85213 z m -31.57245,-1.84815 c 1.16552,-0.5808 2.65774,-1.98276 6.45157,-6.06134 2.71445,-2.91818 6.07225,-6.51537 7.46179,-7.99375 l 2.52642,-2.68797 -0.77298,-0.50648 c -1.30028,-0.85198 -4.12834,-4.44514 -5.34585,-6.79213 -2.29513,-4.4243 -2.87936,-8.16142 -2.15138,-13.761672 0.37351,-2.873372 0.46258,-5.892164 0.418,-14.167479 -0.0319,-5.923232 0.0791,-11.728063 0.25414,-13.291139 1.26486,-11.294313 5.28433,-21.02434 11.3827,-27.554425 l 2.06231,-2.208293 -2.09908,-0.625131 c -2.99908,-0.893166 -7.78263,-1.949982 -11.51125,-2.543147 -4.12483,-0.656197 -15.310475,-0.723546 -18.403117,-0.110805 -10.989016,2.177235 -17.533034,8.461908 -20.0504,19.255784 -0.450944,1.93354 -0.628918,3.968866 -0.745711,8.527984 -0.13477,5.260875 -0.07602,6.44962 0.483607,9.785784 1.776031,10.587584 5.813002,25.960148 9.350224,35.605139 3.958303,10.79315 7.813443,18.0694 11.828854,22.32595 3.289659,3.48721 5.857255,4.29953 8.860153,2.80312 z m 101.68705,-4.08656 c 4.55821,-0.78287 8.17334,-2.24297 11.6388,-4.70074 1.67411,-1.18731 2.43968,-2.14765 1.39141,-1.74539 -1.44835,0.55579 -7.51653,1.1937 -11.39628,1.19802 -4.70991,0.005 -6.69625,-0.37333 -9.0555,-1.72589 -1.1584,-0.66411 -1.18182,-0.66547 -2.72343,-0.15724 -2.08738,0.68816 -3.15646,1.76171 -3.54128,3.55607 -0.51902,2.42009 -0.41834,3.12983 0.49548,3.4928 2.23061,0.886 8.29139,0.92385 13.1908,0.0824 z M 130.04458,110.4187 c 0.41321,-1.20497 1.4681,-3.83399 2.34419,-5.84226 4.37289,-10.024012 4.72805,-11.246545 4.96441,-17.088611 0.18469,-4.5648 -0.16889,-8.463082 -1.22155,-13.467991 -0.80287,-3.817218 -1.46202,-5.240079 -3.06189,-6.609517 -1.52561,-1.305861 -3.00062,-1.725143 -6.02943,-1.713902 -4.05308,0.01504 -9.69705,1.693086 -13.83312,4.112816 l -1.3011,0.761176 -0.0386,8.896878 c -0.0233,5.368639 -0.17275,9.591938 -0.37687,10.649556 -0.47321,2.451839 -0.42425,6.709075 0.10091,8.775044 0.59099,2.324931 2.18502,5.510441 3.61917,7.232531 3.29466,3.95615 8.6138,6.7001 12.67838,6.54032 l 1.40419,-0.0552 z m 65.2796,-4.30867 c 6.53059,-10.468777 11.7657,-21.744229 15.1562,-32.643623 4.10554,-13.198019 5.17546,-24.861239 2.73935,-29.861658 -0.92757,-1.903948 -4.43368,-5.517776 -7.70315,-7.939816 -2.7806,-2.059888 -7.77592,-4.60033 -11.24258,-5.717582 -7.27749,-2.345422 -17.13467,-2.948016 -25.92171,-1.58466 -3.63837,0.564513 -3.64023,0.58573 -0.19604,2.24701 10.27002,4.953689 19.26271,13.886477 24.51383,24.35055 3.17279,6.322537 3.40877,8.202365 2.13609,17.016339 -0.8699,6.0245 -0.85993,10.923172 0.0363,17.848142 0.88283,6.821176 0.084,12.569168 -2.36929,17.048048 -0.96106,1.75456 -0.99232,1.89709 -0.56059,2.55599 0.25147,0.3838 0.5582,0.69781 0.6816,0.69781 0.12341,0 1.35189,-1.80745 2.72996,-4.01655 z m -5.43154,-3.52044 c 1.39951,-4.024295 1.51183,-7.374573 0.5063,-15.101761 -0.64606,-4.964775 -0.59937,-10.287763 0.13197,-15.043817 0.33351,-2.168939 0.69165,-4.688889 0.79587,-5.599893 l 0.18948,-1.656368 -1.66665,-0.208233 c -2.37518,-0.29676 -7.89119,0.03071 -9.64114,0.57236 -5.81898,1.801122 -6.94891,7.353777 -3.42357,16.823974 1.25258,3.364843 4.24646,9.329658 7.25761,14.459591 1.22596,2.088608 2.75345,4.832727 3.39443,6.098047 0.75509,1.49061 1.26543,2.20055 1.44953,2.01646 0.15627,-0.15627 0.60904,-1.21843 1.00617,-2.36036 z"
       id="path10655" />
    <path
       style="fill:#ffffff;stroke-width:0.292113"
       d="m 181.11003,71.413801 c -0.64265,-0.223535 -1.47188,-0.756673 -1.84273,-1.184753 l -0.67428,-0.778327 0.61166,-0.651083 c 1.25593,-1.336868 5.45293,-1.826293 6.73796,-0.785734 0.646,0.523098 0.64958,0.556341 0.15069,1.40089 -0.57581,0.974771 -1.99076,2.004571 -3.08457,2.244947 -0.40165,0.08827 -1.25608,-0.0224 -1.89873,-0.24594 z"
       id="path10657" />
    <path
       style="fill:#ffffff;stroke-width:0.0182571"
       d="m 128.68488,73.67664 c -0.78205,-0.06506 -1.53716,-0.338266 -2.273,-0.822398 -0.32029,-0.210726 -0.56306,-0.411956 -0.8777,-0.727514 -0.42333,-0.424569 -0.68078,-0.770287 -0.88537,-1.188924 -0.16521,-0.338067 -0.20617,-0.494787 -0.20755,-0.794182 -9.6e-4,-0.206085 0.005,-0.26741 0.0393,-0.374269 0.11288,-0.356273 0.41549,-0.670039 0.86274,-0.894564 0.80791,-0.405579 2.13101,-0.543233 3.588,-0.373291 0.97916,0.114207 1.8615,0.342437 2.61802,0.677183 1.06866,0.472863 1.65552,1.139941 1.60269,1.82177 -0.0539,0.695501 -0.8085,1.558734 -1.85823,2.12572 -0.79688,0.43042 -1.71738,0.624638 -2.60895,0.550469 z m 0.93444,-0.692729 c 0.6922,-0.107439 1.441,-0.440623 1.99408,-0.887284 0.43989,-0.355252 0.75242,-0.768804 0.81828,-1.082787 0.11871,-0.565951 -0.80511,-1.220578 -2.25885,-1.600632 -0.72787,-0.190289 -1.42314,-0.285667 -2.21823,-0.304297 -1.42584,-0.03341 -2.46723,0.256106 -2.74866,0.764155 -0.0477,0.08615 -0.0538,0.114639 -0.0538,0.252299 0,0.181624 0.0459,0.342105 0.16436,0.574182 0.36789,0.720982 1.14714,1.458551 1.99293,1.886339 0.46861,0.237012 0.89499,0.367268 1.38671,0.423631 0.19451,0.0223 0.70595,0.0081 0.92318,-0.02561 z"
       id="path10659" />
    <path
       style="fill:#ffffff;stroke-width:0.0182571"
       d="m 128.71358,72.297303 c -0.78619,-0.08936 -1.703,-0.618011 -2.3287,-1.342765 -0.25916,-0.300185 -0.45802,-0.619531 -0.46344,-0.744206 -0.002,-0.05415 0.006,-0.06164 0.13443,-0.125624 0.39374,-0.195661 1.01185,-0.282041 1.88905,-0.263992 0.83756,0.01723 1.59091,0.134094 2.33746,0.362586 0.56661,0.173419 1.12205,0.452775 1.33067,0.669244 l 0.0709,0.07361 -0.0464,0.07885 c -0.1862,0.316565 -0.65674,0.705802 -1.15441,0.954949 -0.48499,0.242802 -0.8417,0.336338 -1.32363,0.347083 -0.16569,0.0037 -0.36638,-6.87e-4 -0.44599,-0.0097 z"
       id="path10661" />
    <path
       style="fill:#ffffff;stroke-width:0.146056"
       d="m 38.631938,185.19961 v -3.65141 h 3.474669 c 3.795844,0 4.732853,0.13292 5.774478,0.81913 1.445348,0.95218 1.720072,3.72598 0.505984,5.10875 -1.009118,1.14932 -2.075014,1.37494 -6.495685,1.37494 h -3.259446 z"
       id="path10663" />
    <path
       style="fill:#ffffff;stroke-width:0.146056"
       d="m 68.022333,198.76785 c -1.100402,-0.1852 -2.080091,-0.73149 -2.852495,-1.59059 -0.869159,-0.96672 -1.291188,-2.07574 -1.382793,-3.63375 -0.162172,-2.75818 0.924585,-4.86411 3.012182,-5.83703 0.697327,-0.32499 1.028717,-0.38481 2.1425,-0.38675 1.197235,-0.002 1.406787,0.0416 2.294259,0.47852 2.058565,1.01343 3.004618,2.93729 2.854616,5.80506 -0.05315,1.01614 -0.158945,1.52922 -0.443456,2.15068 -0.699087,1.527 -2.133176,2.72086 -3.548104,2.95373 -1.111313,0.18291 -1.312616,0.18874 -2.076709,0.0601 z"
       id="path10665" />
    <path
       style="fill:#ffffff;stroke-width:0.146056"
       d="m 129.4378,198.63037 c -0.79778,-0.19788 -1.27438,-0.4792 -1.88635,-1.11346 -1.15166,-1.19361 -1.76228,-3.44217 -1.46639,-5.39989 0.52949,-3.50328 2.74514,-5.31806 5.51108,-4.51398 0.69618,0.20239 1.0199,0.41452 1.75451,1.14974 1.17581,1.17677 1.55259,2.10899 1.6451,4.07025 0.0824,1.74757 -0.25885,3.02939 -1.10069,4.13413 -0.97067,1.2738 -2.99852,2.03504 -4.45726,1.67321 z"
       id="path10667" />
    <path
       style="fill:#ffffff;stroke-width:0.146056"
       d="m 167.0856,190.49416 c 0.16749,-0.89468 0.78778,-2.04476 1.35499,-2.5123 0.73294,-0.60415 1.65124,-0.88352 2.90419,-0.88352 2.33511,0 3.89065,1.23818 4.35795,3.46885 l 0.0994,0.47468 h -4.40956 -4.40955 z"
       id="path10669" />
    <path
       style="fill:#ffffff;stroke-width:0.146056"
       d="m 225.43817,198.1248 c -3.82895,-0.86514 -6.14895,-4.00845 -6.14362,-8.32384 0.002,-1.85679 0.23023,-2.90657 0.95156,-4.38226 0.60431,-1.23631 1.81415,-2.49574 3.00949,-3.13285 2.48183,-1.3228 5.95513,-1.35123 8.48461,-0.0694 1.77049,0.89717 3.32694,2.99797 3.84291,5.18693 0.27853,1.18165 0.28371,3.55688 0.0106,4.84584 -0.20494,0.96715 -0.90593,2.73696 -1.08345,2.73545 -0.0493,-4.2e-4 -0.80795,-0.55908 -1.68593,-1.24148 -0.87797,-0.68239 -1.6341,-1.24072 -1.68028,-1.24072 -0.11774,0 -3.14054,2.61527 -3.19193,2.76159 -0.0231,0.0659 0.6177,0.62547 1.42405,1.24355 0.80636,0.61809 1.46611,1.18026 1.46611,1.24927 0,0.44059 -3.90568,0.70652 -5.40409,0.36796 z"
       id="path10671" />
    <path
       style="fill:#ffffff;stroke-width:0.146056"
       d="m 64.556962,267.66178 c -1.104283,-0.27363 -1.861148,-0.72368 -2.601092,-1.54667 -1.946753,-2.16526 -1.843822,-6.14439 0.212124,-8.20034 2.102823,-2.10282 6.136559,-1.8467 7.861738,0.49918 0.802313,1.09097 1.07575,2.04128 1.081147,3.75742 0.0059,1.86875 -0.313583,2.82012 -1.324533,3.94454 -1.30352,1.44983 -3.27043,2.03127 -5.229384,1.54587 z"
       id="path10673" />
    <path
       style="fill:#ffffff;stroke-width:0.146056"
       d="m 91.638819,267.71635 c -0.948792,-0.1554 -1.72981,-0.59482 -2.454407,-1.38091 -2.664014,-2.89012 -1.476324,-8.65001 1.991508,-9.65813 1.107691,-0.32202 2.424182,-0.20836 3.46071,0.29876 1.034744,0.50626 2.155407,1.73461 2.574929,2.82237 0.445529,1.1552 0.543256,3.0606 0.21608,4.21299 -0.548007,1.93021 -2.123432,3.40098 -3.901578,3.64239 -0.348778,0.0473 -0.765594,0.10544 -0.926256,0.12909 -0.160662,0.0236 -0.593106,-0.006 -0.960986,-0.0666 z"
       id="path10675" />
    <path
       style="fill:#ffffff;stroke-width:0.146056"
       d="m 119.88319,261.55063 c 0.17464,-0.42449 4.08039,-9.09552 4.11322,-9.13159 0.0313,-0.0344 3.84146,8.38139 4.10207,9.06052 0.091,0.23719 -0.17469,0.25364 -4.09653,0.25364 -3.29778,0 -4.17782,-0.039 -4.11876,-0.18257 z"
       id="path10677" />
    <path
       style="fill:#ffffff;stroke-width:0.146056"
       d="m 151.82571,267.69233 c -1.76146,-0.26744 -3.30399,-1.49342 -3.96917,-3.1546 -0.27558,-0.68822 -0.33398,-1.11162 -0.33648,-2.43939 -0.003,-1.50256 0.0268,-1.66954 0.45724,-2.57807 0.56439,-1.19125 1.42265,-2.07446 2.51229,-2.58532 0.71991,-0.33752 1.01084,-0.38675 2.28548,-0.38675 1.6844,0 2.38976,0.24393 3.4344,1.1877 1.27072,1.14802 1.81115,2.49977 1.80249,4.5085 -0.009,2.16637 -0.82482,3.77175 -2.39476,4.71437 -1.20249,0.722 -2.37435,0.94873 -3.79149,0.73356 z"
       id="path10679" />
  </g>
</svg>
